<svg xmlns="http://www.w3.org/2000/svg" width="204.81" height="35" viewBox="0 0 204.81 35"><rect class="svg__rect" x="0" y="0" width="73.34" height="35" fill="#FBDEA3"/><rect class="svg__rect" x="71.34" y="0" width="133.47" height="35" fill="#F4C978"/><path class="svg__text" d="M15.70 22L14.22 22L14.22 13.47L15.70 13.47L19.51 19.54L19.51 13.47L20.98 13.47L20.98 22L19.50 22L15.70 15.95L15.70 22ZM25.46 18.00L25.46 18.00L25.46 17.52Q25.46 16.28 25.90 15.32Q26.34 14.37 27.15 13.86Q27.95 13.35 28.99 13.35Q30.04 13.35 30.84 13.85Q31.65 14.35 32.09 15.29Q32.53 16.23 32.53 17.48L32.53 17.48L32.53 17.96Q32.53 19.21 32.10 20.16Q31.67 21.10 30.86 21.61Q30.06 22.12 29.01 22.12L29.01 22.12Q27.97 22.12 27.16 21.61Q26.35 21.10 25.90 20.17Q25.46 19.23 25.46 18.00ZM26.94 17.46L26.94 17.96Q26.94 19.36 27.49 20.13Q28.03 20.90 29.01 20.90L29.01 20.90Q29.99 20.90 30.52 20.15Q31.05 19.40 31.05 17.96L31.05 17.96L31.05 17.51Q31.05 16.09 30.52 15.34Q29.98 14.58 28.99 14.58L28.99 14.58Q28.03 14.58 27.49 15.33Q26.95 16.09 26.94 17.46L26.94 17.46ZM38.68 14.66L36.04 14.66L36.04 13.47L42.81 13.47L42.81 14.66L40.15 14.66L40.15 22L38.68 22L38.68 14.66ZM53.32 22L51.78 22L55.00 13.47L56.33 13.47L59.56 22L58.02 22L57.32 20.01L54.01 20.01L53.32 22ZM55.67 15.28L54.43 18.82L56.90 18.82L55.67 15.28Z" fill="#FFFFFF"/><path class="svg__text" d="M87.61 22L84.88 13.60L87.33 13.60L89.02 18.96L90.80 13.60L92.98 13.60L94.67 19.01L96.44 13.60L98.71 13.60L95.98 22L93.44 22L91.83 16.89L90.15 22L87.61 22ZM109.96 22L103.22 22L103.22 13.60L109.81 13.60L109.81 15.44L105.57 15.44L105.57 16.85L109.31 16.85L109.31 18.63L105.57 18.63L105.57 20.17L109.96 20.17L109.96 22ZM119.31 22L114.77 22L114.77 13.60L119.07 13.60Q120.67 13.60 121.51 14.19Q122.35 14.79 122.35 15.79L122.35 15.79Q122.35 16.39 122.06 16.87Q121.76 17.34 121.22 17.62L121.22 17.62Q121.94 17.87 122.35 18.41Q122.76 18.94 122.76 19.70L122.76 19.70Q122.76 20.80 121.87 21.40Q120.98 22 119.31 22L119.31 22ZM117.12 18.58L117.12 20.28L119.11 20.28Q120.36 20.28 120.36 19.43L120.36 19.43Q120.36 18.58 119.11 18.58L119.11 18.58L117.12 18.58ZM117.12 15.31L117.12 16.94L118.75 16.94Q119.95 16.94 119.95 16.12L119.95 16.12Q119.95 15.31 118.75 15.31L118.75 15.31L117.12 15.31ZM134.22 22L127.48 22L127.48 13.60L134.07 13.60L134.07 15.44L129.83 15.44L129.83 16.85L133.56 16.85L133.56 18.63L129.83 18.63L129.83 20.17L134.22 20.17L134.22 22ZM141.36 22L139.02 22L139.02 13.60L140.98 13.60L144.69 18.07L144.69 13.60L147.02 13.60L147.02 22L145.06 22L141.36 17.52L141.36 22ZM151.75 17.80L151.75 17.80Q151.75 16.54 152.35 15.54Q152.95 14.55 154.02 13.99Q155.08 13.43 156.43 13.43L156.43 13.43Q157.60 13.43 158.54 13.83Q159.48 14.22 160.10 14.97L160.10 14.97L158.59 16.33Q157.74 15.40 156.57 15.40L156.57 15.40Q156.56 15.40 156.55 15.40L156.55 15.40Q155.47 15.40 154.81 16.06Q154.15 16.71 154.15 17.80L154.15 17.80Q154.15 18.50 154.45 19.04Q154.75 19.59 155.29 19.89Q155.83 20.20 156.53 20.20L156.53 20.20Q157.21 20.20 157.81 19.93L157.81 19.93L157.81 17.62L159.91 17.62L159.91 21.10Q159.19 21.61 158.25 21.89Q157.32 22.17 156.38 22.17L156.38 22.17Q155.06 22.17 154.00 21.61Q152.95 21.05 152.35 20.05Q151.75 19.06 151.75 17.80ZM167.28 22L164.90 22L164.90 13.60L167.28 13.60L167.28 22ZM174.78 22L172.45 22L172.45 13.60L174.41 13.60L178.12 18.07L178.12 13.60L180.44 13.60L180.44 22L178.49 22L174.78 17.52L174.78 22ZM192.35 22L185.61 22L185.61 13.60L192.20 13.60L192.20 15.44L187.96 15.44L187.96 16.85L191.69 16.85L191.69 18.63L187.96 18.63L187.96 20.17L192.35 20.17L192.35 22Z" fill="#FFFFFF" x="84.34"/></svg>