<svg xmlns="http://www.w3.org/2000/svg" width="208.14" height="35" viewBox="0 0 208.14 35"><rect class="svg__rect" x="0" y="0" width="80.38" height="35" fill="#E2BC12"/><rect class="svg__rect" x="78.38" y="0" width="129.76" height="35" fill="#EA4560"/><path class="svg__text" d="M15.60 22L13.63 13.47L15.10 13.47L16.43 19.88L18.06 13.47L19.30 13.47L20.91 19.89L22.22 13.47L23.69 13.47L21.72 22L20.31 22L18.68 15.77L17.02 22L15.60 22ZM27.49 18.00L27.49 18.00L27.49 17.52Q27.49 16.28 27.94 15.32Q28.38 14.37 29.18 13.86Q29.99 13.35 31.03 13.35Q32.08 13.35 32.88 13.85Q33.69 14.35 34.13 15.29Q34.57 16.23 34.57 17.48L34.57 17.48L34.57 17.96Q34.57 19.21 34.14 20.16Q33.71 21.10 32.90 21.61Q32.09 22.12 31.05 22.12L31.05 22.12Q30.01 22.12 29.20 21.61Q28.39 21.10 27.94 20.17Q27.50 19.23 27.49 18.00ZM28.98 17.46L28.98 17.96Q28.98 19.36 29.52 20.13Q30.07 20.90 31.05 20.90L31.05 20.90Q32.03 20.90 32.56 20.15Q33.09 19.40 33.09 17.96L33.09 17.96L33.09 17.51Q33.09 16.09 32.55 15.34Q32.02 14.58 31.03 14.58L31.03 14.58Q30.07 14.58 29.53 15.33Q28.99 16.09 28.98 17.46L28.98 17.46ZM40.52 22L39.04 22L39.04 13.47L42.04 13.47Q43.51 13.47 44.32 14.13Q45.12 14.79 45.12 16.05L45.12 16.05Q45.12 16.90 44.71 17.48Q44.29 18.06 43.56 18.37L43.56 18.37L45.47 21.92L45.47 22L43.88 22L42.17 18.71L40.52 18.71L40.52 22ZM40.52 14.66L40.52 17.52L42.04 17.52Q42.79 17.52 43.22 17.15Q43.64 16.77 43.64 16.11L43.64 16.11Q43.64 15.43 43.25 15.05Q42.86 14.68 42.08 14.66L42.08 14.66L40.52 14.66ZM51.00 22L49.51 22L49.51 13.47L51.00 13.47L51.00 17.47L51.82 16.46L54.31 13.47L56.11 13.47L52.94 17.25L56.29 22L54.53 22L51.96 18.31L51.00 19.34L51.00 22ZM59.63 19.42L59.63 19.42L61.12 19.42Q61.12 20.15 61.60 20.55Q62.08 20.95 62.97 20.95L62.97 20.95Q63.75 20.95 64.14 20.63Q64.53 20.32 64.53 19.80L64.53 19.80Q64.53 19.24 64.13 18.94Q63.73 18.63 62.70 18.32Q61.67 18.01 61.06 17.63L61.06 17.63Q59.90 16.90 59.90 15.72L59.90 15.72Q59.90 14.69 60.74 14.02Q61.58 13.35 62.92 13.35L62.92 13.35Q63.81 13.35 64.51 13.68Q65.21 14.01 65.60 14.61Q66.00 15.22 66.00 15.96L66.00 15.96L64.53 15.96Q64.53 15.29 64.11 14.91Q63.69 14.54 62.91 14.54L62.91 14.54Q62.18 14.54 61.78 14.85Q61.38 15.16 61.38 15.71L61.38 15.71Q61.38 16.18 61.81 16.50Q62.25 16.81 63.24 17.10Q64.24 17.40 64.84 17.78Q65.45 18.16 65.73 18.65Q66.01 19.13 66.01 19.79L66.01 19.79Q66.01 20.86 65.19 21.49Q64.37 22.12 62.97 22.12L62.97 22.12Q62.05 22.12 61.27 21.77Q60.49 21.43 60.06 20.83Q59.63 20.22 59.63 19.42Z" fill="#FFFFFF"/><path class="svg__text" d="M91.98 21.24L91.98 21.24L92.76 19.49Q93.32 19.86 94.07 20.09Q94.81 20.32 95.53 20.32L95.53 20.32Q96.90 20.32 96.90 19.64L96.90 19.64Q96.90 19.28 96.51 19.11Q96.12 18.93 95.26 18.74L95.26 18.74Q94.31 18.53 93.67 18.30Q93.04 18.06 92.58 17.55Q92.13 17.03 92.13 16.16L92.13 16.16Q92.13 15.39 92.55 14.77Q92.97 14.15 93.80 13.79Q94.64 13.43 95.84 13.43L95.84 13.43Q96.67 13.43 97.48 13.62Q98.28 13.80 98.90 14.17L98.90 14.17L98.16 15.93Q96.96 15.28 95.83 15.28L95.83 15.28Q95.12 15.28 94.80 15.49Q94.48 15.70 94.48 16.04L94.48 16.04Q94.48 16.37 94.86 16.54Q95.25 16.71 96.10 16.89L96.10 16.89Q97.06 17.10 97.69 17.33Q98.32 17.56 98.78 18.07Q99.24 18.58 99.24 19.46L99.24 19.46Q99.24 20.21 98.82 20.83Q98.40 21.44 97.56 21.80Q96.72 22.17 95.52 22.17L95.52 22.17Q94.50 22.17 93.54 21.92Q92.58 21.67 91.98 21.24ZM103.39 17.80L103.39 17.80Q103.39 16.55 103.99 15.55Q104.60 14.56 105.66 14.00Q106.72 13.43 108.05 13.43L108.05 13.43Q109.38 13.43 110.45 14.00Q111.51 14.56 112.12 15.55Q112.72 16.55 112.72 17.80L112.72 17.80Q112.72 19.05 112.12 20.04Q111.51 21.04 110.45 21.60Q109.39 22.17 108.05 22.17L108.05 22.17Q106.72 22.17 105.66 21.60Q104.60 21.04 103.99 20.04Q103.39 19.05 103.39 17.80ZM105.79 17.80L105.79 17.80Q105.79 18.51 106.09 19.05Q106.39 19.60 106.91 19.90Q107.42 20.20 108.05 20.20L108.05 20.20Q108.69 20.20 109.21 19.90Q109.72 19.60 110.02 19.05Q110.32 18.51 110.32 17.80L110.32 17.80Q110.32 17.09 110.02 16.54Q109.72 16 109.21 15.70Q108.69 15.40 108.05 15.40L108.05 15.40Q107.42 15.40 106.90 15.70Q106.39 16 106.09 16.54Q105.79 17.09 105.79 17.80ZM119.65 22L117.45 22L117.45 13.60L119.41 13.60L122.36 18.45L125.25 13.60L127.20 13.60L127.22 22L125.04 22L125.02 17.55L122.85 21.17L121.80 21.17L119.65 17.67L119.65 22ZM139.13 22L132.38 22L132.38 13.60L138.97 13.60L138.97 15.44L134.74 15.44L134.74 16.85L138.47 16.85L138.47 18.63L134.74 18.63L134.74 20.17L139.13 20.17L139.13 22ZM145.72 15.48L143.14 15.48L143.14 13.60L150.66 13.60L150.66 15.48L148.10 15.48L148.10 22L145.72 22L145.72 15.48ZM157.41 22L155.03 22L155.03 13.60L157.41 13.60L157.41 22ZM164.78 22L162.59 22L162.59 13.60L164.54 13.60L167.50 18.45L170.38 13.60L172.33 13.60L172.35 22L170.18 22L170.15 17.55L167.99 21.17L166.94 21.17L164.78 17.67L164.78 22ZM184.26 22L177.52 22L177.52 13.60L184.11 13.60L184.11 15.44L179.87 15.44L179.87 16.85L183.60 16.85L183.60 18.63L179.87 18.63L179.87 20.17L184.26 20.17L184.26 22ZM188.48 21.24L188.48 21.24L189.26 19.49Q189.82 19.86 190.57 20.09Q191.31 20.32 192.03 20.32L192.03 20.32Q193.40 20.32 193.40 19.64L193.40 19.64Q193.40 19.28 193.01 19.11Q192.62 18.93 191.76 18.74L191.76 18.74Q190.81 18.53 190.17 18.30Q189.53 18.06 189.08 17.55Q188.63 17.03 188.63 16.16L188.63 16.16Q188.63 15.39 189.05 14.77Q189.46 14.15 190.30 13.79Q191.13 13.43 192.34 13.43L192.34 13.43Q193.17 13.43 193.97 13.62Q194.78 13.80 195.39 14.17L195.39 14.17L194.66 15.93Q193.46 15.28 192.33 15.28L192.33 15.28Q191.62 15.28 191.30 15.49Q190.98 15.70 190.98 16.04L190.98 16.04Q190.98 16.37 191.36 16.54Q191.74 16.71 192.59 16.89L192.59 16.89Q193.55 17.10 194.18 17.33Q194.81 17.56 195.28 18.07Q195.74 18.58 195.74 19.46L195.74 19.46Q195.74 20.21 195.32 20.83Q194.90 21.44 194.06 21.80Q193.22 22.17 192.02 22.17L192.02 22.17Q191.00 22.17 190.04 21.92Q189.08 21.67 188.48 21.24Z" fill="#FFFFFF" x="91.38"/></svg>